<svg id="Layer_1" data-name="Layer 1" xmlns="http://www.w3.org/2000/svg" viewBox="0 0 2030.75 725.16"><defs><style>.cls-1{fill:#307fe2;}.cls-2{fill:#6b4eff;}.cls-3{fill:#8338ec;}.cls-4{fill:#e31c79;}.cls-5{fill:#ff006e;}.cls-6{fill:#ffb600;}.cls-7{fill:#ffbe0b;}</style></defs><title>Logo-01</title><path class="cls-1" d="M1276.07,841.57a24.41,24.41,0,0,1-24.41-24.41V667.09l.23-1.64c2.46-18.12,15-80.21,73.23-118.32,38.45-25.16,78.19-27.24,98.46-26.24a24.4,24.4,0,0,1-2.41,48.75c-14.34-.71-42.43.73-69.33,18.33-39.43,25.81-49.14,67.89-51.37,82.51V817.16A24.4,24.4,0,0,1,1276.07,841.57Z" transform="translate(-283.39 -284)"/><path class="cls-1" d="M1467.06,842.52a24.4,24.4,0,0,1-24.4-24.41V668l.22-1.63c2.46-18.12,15-80.21,73.23-118.32,38.45-25.16,78.19-27.24,98.46-26.24a24.4,24.4,0,0,1-2.4,48.75c-14.35-.7-42.44.73-69.33,18.33-39.44,25.81-49.15,67.89-51.37,82.51V818.11A24.41,24.41,0,0,1,1467.06,842.52Z" transform="translate(-283.39 -284)"/><path class="cls-1" d="M1791.69,840.09A152.72,152.72,0,0,1,1701,810.82a154.27,154.27,0,0,1-18-15.4c-.5-.43-1-.88-1.47-1.36a25.18,25.18,0,0,1-1.77-2,162.15,162.15,0,0,1-43-93.37c-5-44.86,8.77-89.65,37.81-122.87,28.31-32.4,69.71-52.07,113.58-54A163.3,163.3,0,0,1,1907.91,567l17.92,17.25L1735,775c51.22,32.72,119.24,12.58,150.2-27.68,15.15-19.69,19.32-42.64,20.15-58.43a24.4,24.4,0,1,1,48.74,2.56c-1.71,32.56-12.15,62.17-30.2,85.63-23.16,30.11-59.53,51.91-99.79,59.81A168.25,168.25,0,0,1,1791.69,840.09Zm3.67-269.55c-1.71,0-3.43,0-5.15.11-31,1.34-59.08,14.59-78.94,37.32-20,22.94-29.55,54-26,85.34A114.62,114.62,0,0,0,1701,740L1854.2,586.83A112.9,112.9,0,0,0,1795.36,570.54Z" transform="translate(-283.39 -284)"/><path class="cls-1" d="M1055.22,843.29h-2.41A159.31,159.31,0,0,1,898,710.07l-.33-2L897.43,547a24.4,24.4,0,0,1,24.37-24.44h0a24.4,24.4,0,0,1,24.4,24.36l.26,157a110.51,110.51,0,0,0,107,90.55l1.67,0A110.61,110.61,0,0,0,1163.07,708l.72-162.79a24.4,24.4,0,0,1,24.4-24.3h.11a24.4,24.4,0,0,1,24.29,24.51l-.74,167.68-.47,2.34A159.42,159.42,0,0,1,1055.22,843.29Z" transform="translate(-283.39 -284)"/><path class="cls-1" d="M2314.15,542.38V984.76a24.41,24.41,0,0,1-48.82,0V798.12a159,159,0,0,1-107.58,44c-.81,0-1.61,0-2.41,0a159.41,159.41,0,0,1-156.16-127.9l-.48-2.34L1998,544.25a24.38,24.38,0,0,1,24.29-24.51h.11A24.41,24.41,0,0,1,2046.78,544l.71,162.8a110.62,110.62,0,0,0,107.85,86.53l1.67,0a110.51,110.51,0,0,0,107-90.55l.26-157a25,25,0,1,1,49.84-3.43Z" transform="translate(-283.39 -284)"/><path class="cls-1" d="M843.29,470.7v280a93.33,93.33,0,1,1-186.66,0V657.36h.93A186.14,186.14,0,0,0,843.29,470.7Z" transform="translate(-283.39 -284)"/><path class="cls-2" d="M843.29,284V470.7H656.63v0C656.63,367.58,740.2,284,843.29,284Z" transform="translate(-283.39 -284)"/><rect class="cls-3" x="373.23" y="186.7" width="0.93" height="186.66"/><path class="cls-1" d="M470.05,377.33V470.7A187,187,0,0,0,283.39,657.36v-280a93.33,93.33,0,1,1,186.66,0Z" transform="translate(-283.39 -284)"/><path class="cls-2" d="M470.05,657.36v0C470.05,760.47,386.48,844,283.39,844V657.36Z" transform="translate(-283.39 -284)"/><path class="cls-4" d="M470.05,470.7V657.36H283.39A187,187,0,0,1,470.05,470.7Z" transform="translate(-283.39 -284)"/><rect class="cls-5" x="186.66" y="186.7" width="0.78" height="186.66"/><path class="cls-4" d="M843.29,470.7A186.14,186.14,0,0,1,657.56,657.36V470.7Z" transform="translate(-283.39 -284)"/><rect class="cls-6" x="187.44" y="186.7" width="185.79" height="186.66"/><rect class="cls-7" x="373.23" y="186.7" width="0.93" height="186.66"/></svg>