<svg width="99" height="36" viewBox="0 0 99 36" fill="none" xmlns="http://www.w3.org/2000/svg">
<path d="M50.991 27.7823C50.6918 27.7819 50.4049 27.663 50.1935 27.4515C49.9821 27.24 49.8633 26.9534 49.8633 26.6545V19.7252L49.8728 19.6499C49.9865 18.8136 50.5676 15.9463 53.2595 14.1829C54.6149 13.3115 56.2094 12.8858 57.8192 12.9655C57.9701 12.9688 58.1187 13.0023 58.2563 13.0639C58.394 13.1256 58.5179 13.2142 58.6207 13.3245C58.7235 13.4347 58.8031 13.5645 58.8548 13.7061C58.9066 13.8476 58.9294 13.9981 58.922 14.1486C58.9146 14.2991 58.877 14.4466 58.8116 14.5824C58.7461 14.7182 58.6541 14.8395 58.5409 14.9391C58.4277 15.0388 58.2957 15.1148 58.1527 15.1626C58.0096 15.2104 57.8584 15.2291 57.708 15.2175C56.5772 15.1599 55.4565 15.456 54.502 16.0646C52.6783 17.2593 52.2299 19.2019 52.1258 19.8769V26.658C52.1254 26.8064 52.0956 26.9531 52.0383 27.0899C51.981 27.2267 51.8972 27.3509 51.7918 27.4553C51.6864 27.5598 51.5614 27.6424 51.424 27.6985C51.2866 27.7546 51.1394 27.7831 50.991 27.7823Z" fill="#6b4eff"/>
<path d="M59.8242 27.826C59.525 27.826 59.238 27.7073 59.0264 27.4961C58.8147 27.2848 58.6956 26.9983 58.6953 26.6994V19.7701L58.7061 19.6936C58.8197 18.8573 59.3997 15.99 62.0927 14.2278C63.4465 13.3582 65.039 12.9341 66.6464 13.0152C66.7973 13.0185 66.9459 13.0519 67.0835 13.1136C67.2212 13.1752 67.345 13.2638 67.4478 13.3741C67.5506 13.4844 67.6303 13.6142 67.682 13.7557C67.7338 13.8973 67.7566 14.0477 67.7492 14.1983C67.7418 14.3488 67.7042 14.4963 67.6388 14.6321C67.5733 14.7678 67.4813 14.8891 67.3681 14.9888C67.2549 15.0884 67.1229 15.1644 66.9799 15.2122C66.8368 15.26 66.6856 15.2787 66.5352 15.2672C65.4039 15.209 64.2827 15.5051 63.328 16.1142C61.5043 17.3089 61.0559 19.2515 60.9531 19.9266V26.7041C60.9515 27.0022 60.8318 27.2875 60.6203 27.4978C60.4088 27.708 60.1225 27.826 59.8242 27.826Z" fill="#6b4eff"/>
<path d="M74.8385 27.7148C73.3316 27.7223 71.8618 27.2484 70.6435 26.3624C70.3465 26.1452 70.0667 25.9056 69.8064 25.6456C69.7837 25.6265 69.761 25.605 69.7383 25.5835C69.7096 25.5542 69.6824 25.5235 69.6569 25.4915C68.5433 24.3069 67.8454 22.7928 67.6683 21.1774C67.5465 20.1734 67.635 19.1551 67.9281 18.1871C68.2212 17.2192 68.7125 16.3226 69.3709 15.5545C70.0293 14.7863 70.8403 14.1632 71.7525 13.7248C72.6647 13.2865 73.6582 13.0423 74.6699 13.0079C75.6862 12.9643 76.7008 13.1263 77.6528 13.4841C78.6049 13.8419 79.4748 14.3883 80.2102 15.0903L81.0389 15.8872L72.216 24.703C74.5838 26.2143 77.7301 25.2836 79.1615 23.4234C79.8622 22.5143 80.0548 21.4534 80.0942 20.7234C80.1156 20.4288 80.2517 20.1543 80.4734 19.959C80.6952 19.7636 80.9847 19.6629 81.28 19.6786C81.5752 19.6942 81.8525 19.8249 82.0523 20.0426C82.252 20.2604 82.3584 20.5477 82.3484 20.8429C82.2683 22.3482 81.7863 23.7102 80.9516 24.7997C79.8754 26.1904 78.2012 27.1987 76.3357 27.5631C75.8427 27.662 75.3413 27.7129 74.8385 27.7148ZM75.0083 15.26C74.9294 15.26 74.8505 15.26 74.7692 15.26C74.0749 15.2831 73.3928 15.4481 72.7649 15.7448C72.1369 16.0415 71.5765 16.4636 71.1183 16.9851C70.6556 17.5234 70.3096 18.1517 70.1024 18.8303C69.8951 19.5089 69.831 20.2231 69.914 20.9277C69.9979 21.6914 70.2472 22.4276 70.6447 23.0853L77.7289 16.0079C76.9079 15.5138 75.9667 15.2551 75.0083 15.26Z" fill="#6b4eff"/>
<path d="M40.7775 27.8628H40.6663C38.9405 27.8369 37.2785 27.2065 35.9704 26.0816C34.6622 24.9567 33.7907 23.4088 33.508 21.7077L33.4936 21.6169L33.4805 14.1738C33.4795 14.0252 33.508 13.8779 33.5642 13.7403C33.6205 13.6027 33.7034 13.4776 33.8082 13.3721C33.913 13.2667 34.0376 13.1829 34.1749 13.1257C34.3122 13.0686 34.4594 13.039 34.6082 13.0389C34.7563 13.0387 34.9029 13.0677 35.0398 13.1242C35.1767 13.1806 35.3011 13.2635 35.4059 13.368C35.5107 13.4725 35.5939 13.5966 35.6507 13.7332C35.7076 13.8699 35.7369 14.0163 35.737 14.1643L35.749 21.4174C35.9627 22.5789 36.5729 23.6305 37.4757 24.3929C38.3784 25.1554 39.5178 25.5816 40.6998 25.5989H40.7763C41.9388 25.5979 43.0663 25.2013 43.9729 24.4744C44.8796 23.7475 45.5114 22.7338 45.7642 21.6002L45.7976 14.0735C45.7992 13.7754 45.9189 13.4901 46.1304 13.2799C46.3419 13.0697 46.6281 12.9517 46.9265 12.9517C47.0748 12.9523 47.2214 12.9821 47.3582 13.0393C47.4949 13.0966 47.619 13.1802 47.7233 13.2854C47.8277 13.3905 47.9104 13.5152 47.9665 13.6523C48.0227 13.7894 48.0512 13.9361 48.0506 14.0842L48.0159 21.8319L47.9944 21.9395C47.6609 23.6074 46.7599 25.1086 45.4444 26.1883C44.1289 27.268 42.48 27.8597 40.7775 27.8628Z" fill="#6b4eff"/>
<path d="M99.0004 13.9574V34.3977C99.0053 34.5488 98.9798 34.6994 98.9253 34.8404C98.8708 34.9815 98.7885 35.1102 98.6832 35.2188C98.578 35.3274 98.4519 35.4138 98.3126 35.4728C98.1732 35.5318 98.0234 35.5622 97.8721 35.5622C97.7207 35.5622 97.571 35.5318 97.4316 35.4728C97.2923 35.4138 97.1662 35.3274 97.061 35.2188C96.9557 35.1102 96.8734 34.9815 96.8189 34.8404C96.7644 34.6994 96.7389 34.5488 96.7438 34.3977V25.7731C95.4014 27.0535 93.6237 27.7791 91.7679 27.8041H91.6627C89.9611 27.8027 88.3123 27.2135 86.9959 26.1363C85.6795 25.0591 84.7764 23.5603 84.4398 21.8939L84.4183 21.7864L84.3848 14.0387C84.384 13.8906 84.4124 13.7439 84.4684 13.6068C84.5245 13.4697 84.607 13.3451 84.7113 13.2399C84.8155 13.1347 84.9396 13.0511 85.0762 12.9938C85.2129 12.9365 85.3595 12.9067 85.5077 12.9061C85.8059 12.9061 86.092 13.0241 86.3034 13.2344C86.5147 13.4446 86.6341 13.73 86.6354 14.0279L86.6688 21.5546C86.9216 22.6894 87.5542 23.7042 88.4621 24.4314C89.37 25.1586 90.499 25.5548 91.6627 25.5545H91.7404C92.9221 25.5365 94.0609 25.11 94.9633 24.3476C95.8657 23.5853 96.4759 22.5341 96.69 21.373L96.6972 14.1139C96.6968 13.9793 96.7212 13.8456 96.7689 13.7197C96.8262 13.4462 96.9832 13.2037 97.2093 13.0393C97.4355 12.8749 97.7148 12.8004 97.9929 12.8301C98.271 12.8599 98.5281 12.9919 98.7143 13.2004C98.9005 13.409 99.0024 13.6792 99.0004 13.9586V13.9574Z" fill="#6b4eff"/>
<rect y="0.919678" width="30.5043" height="30.5043" rx="8" fill="white"/>
<path d="M23.9981 14.7846C25.3098 16.0964 26.1224 17.9073 26.1224 19.9155V5.40512C22.1175 5.40512 18.8672 8.65545 18.8672 12.6603C20.8754 12.6603 22.6863 13.4729 23.9981 14.7846Z" fill="#6B4EFF"/>
<path d="M6.48175 17.6752C5.17 16.3634 4.35742 14.5409 4.35742 12.5443V27.0547C6.36566 27.0547 8.17656 26.2421 9.4883 24.9304C10.8 23.6186 11.6126 21.8077 11.6126 19.7995C9.61599 19.7995 7.79349 18.9869 6.48175 17.6752Z" fill="#6B4EFF"/>
<rect x="4.35742" y="11.5454" width="7.19716" height="8.24191" fill="#307FE2"/>
<rect x="18.9824" y="13.635" width="7.19716" height="8.24191" fill="#307FE2"/>
<path d="M4.35742 12.5444H11.6126V8.91103C11.6126 6.90279 9.98746 5.27762 7.99083 5.27762C5.98259 5.27762 4.35742 6.90279 4.35742 8.91103V12.5444Z" fill="#307FE2"/>
<path d="M26.134 23.4323V19.7989H18.8672V23.4323C18.8672 24.4306 19.2735 25.336 19.9352 25.9977C20.5968 26.6594 21.5023 27.0657 22.5006 27.0657C24.5088 27.0541 26.134 25.4289 26.134 23.4323Z" fill="#307FE2"/>
<path d="M18.8685 19.7993H11.6133V12.5441H18.8685V19.7993Z" fill="#FFB600"/>
<path d="M11.6126 12.5901V19.8453H4.35742C4.35742 17.8371 5.17 16.0262 6.48175 14.7144C7.79349 13.4027 9.61599 12.5901 11.6126 12.5901Z" fill="#E31C79"/>
<path d="M26.134 12.5901C26.134 14.5983 25.3214 16.4092 24.0097 17.721C22.6863 19.0327 20.8754 19.8453 18.8672 19.8453V12.5901H26.134Z" fill="#E31C79"/>
</svg>